<svg width="10" height="6" viewBox="0 0 10 6" fill="none" xmlns="http://www.w3.org/2000/svg">
<path d="M5.47336 3.93334C5.41138 3.99583 5.33765 4.04543 5.25641 4.07927C5.17517 4.11312 5.08803 4.13054 5.00002 4.13054C4.91202 4.13054 4.82488 4.11312 4.74364 4.07927C4.6624 4.04543 4.58867 3.99583 4.52669 3.93334L1.47335 0.873344C1.41138 0.810859 1.33764 0.761262 1.25641 0.727416C1.17517 0.69357 1.08803 0.676145 1.00002 0.676145C0.912012 0.676145 0.824875 0.69357 0.743636 0.727416C0.662396 0.761262 0.588662 0.810859 0.526687 0.873344C0.402519 0.998253 0.332825 1.16722 0.332825 1.34334C0.332825 1.51947 0.402519 1.68844 0.526687 1.81334L3.58669 4.87335C3.96169 5.24788 4.47002 5.45825 5.00002 5.45825C5.53003 5.45825 6.03836 5.24788 6.41336 4.87335L9.47336 1.81334C9.59653 1.68917 9.66596 1.52157 9.6667 1.34668C9.6672 1.25894 9.65039 1.17196 9.61721 1.09074C9.58403 1.00951 9.53515 0.935638 9.47336 0.873344C9.41139 0.810859 9.33765 0.761262 9.25641 0.727416C9.17517 0.69357 9.08804 0.676145 9.00003 0.676145C8.91202 0.676145 8.82488 0.69357 8.74364 0.727416C8.6624 0.761262 8.58867 0.810859 8.5267 0.873344L5.47336 3.93334Z" fill="#FD9222"/>
</svg>
