<svg aria-hidden="true" style="position:absolute;width:0;height:0;overflow:hidden" xmlns="http://www.w3.org/2000/svg">
  <defs>
    <symbol id="icon-icon_FB" viewBox="0 0 32 32">
      <path d="M20.693.854h1.28v4.8h-1.6c-.64 0-1.28 0-1.6.32-.32.32-.32.64-.32 1.387v1.707h3.52v4.053h-3.52v17.6h-5.44V13.014h-2.88V8.961h2.88V7.574c0-2.347.32-4.053.96-4.8.96-1.387 2.88-2.027 5.76-2.027.32.107.64.107.96.107z"/>
    </symbol>
    <symbol id="icon-icon_Insta" viewBox="0 0 32 32">
      <path d="M31.261 9.707a11.116 11.116 0 0 0-.715-3.774 7.856 7.856 0 0 0-4.492-4.484 11.275 11.275 0 0 0-3.729-.715C20.684.661 20.164.64 15.998.64s-4.7 0-6.329.094a11.273 11.273 0 0 0-3.727.715A7.856 7.856 0 0 0 1.45 5.933a11.138 11.138 0 0 0-.715 3.721c-.073 1.64-.096 2.159-.096 6.318s0 4.69.096 6.318a11.22 11.22 0 0 0 .715 3.725 7.857 7.857 0 0 0 4.493 4.482 11.23 11.23 0 0 0 3.727.766c1.643.073 2.163.095 6.329.095s4.7 0 6.329-.095a11.268 11.268 0 0 0 3.729-.714 7.87 7.87 0 0 0 4.492-4.484c.449-1.192.689-2.449.715-3.725.073-1.638.096-2.158.096-6.318-.003-4.159-.003-4.687-.099-6.317zm-15.273 14.13c-4.357 0-7.886-3.524-7.886-7.873s3.53-7.873 7.886-7.873c4.354 0 7.886 3.524 7.886 7.873s-3.533 7.873-7.886 7.873zm8.2-14.202a1.835 1.835 0 1 1 0-3.672 1.836 1.836 0 1 1 0 3.672z"/>
    </symbol>
    <symbol id="icon-icon_Twitter" viewBox="0 0 32 32">
      <path d="M32 5.478c-1.19.522-2.458.868-3.78 1.036a6.523 6.523 0 0 0 2.886-3.626 13.11 13.11 0 0 1-4.16 1.588A6.574 6.574 0 0 0 22.154 2.4c-3.632 0-6.556 2.948-6.556 6.562 0 .52.044 1.02.152 1.496-5.454-.266-10.28-2.88-13.522-6.862a6.605 6.605 0 0 0-.898 3.316 6.57 6.57 0 0 0 2.914 5.452 6.479 6.479 0 0 1-2.964-.808v.072c0 3.188 2.274 5.836 5.256 6.446a6.548 6.548 0 0 1-1.72.216 5.8 5.8 0 0 1-1.242-.112c.85 2.598 3.262 4.508 6.13 4.57a13.182 13.182 0 0 1-8.134 2.798c-.538 0-1.054-.024-1.57-.09A18.469 18.469 0 0 0 10.064 28.4c12.072 0 18.672-10 18.672-18.668 0-.29-.01-.57-.024-.848A13.087 13.087 0 0 0 32 5.478z"/>
    </symbol>
    <symbol id="icon-chocolat-01" viewBox="0 0 32 32">
      <path fill="#111" style="fill:var(--color1, #111)" d="m13.511.473 8.602 8.613.091-.091a.982.982 0 0 1 1.354-.015l.998.998c.349.349.36.88.095 1.25l-.005.008-.163.219 7.04 7.04a1.593 1.593 0 0 1 0 2.263L20.746 31.535a1.593 1.593 0 0 1-2.263 0l-5.082-5.082a.952.952 0 0 1-.7.362.964.964 0 0 1-.736-.282l-2.971-2.971a.98.98 0 0 1-.015-1.354l.007-.008.088-.087-8.602-8.602a1.593 1.593 0 0 1 0-2.263L11.249.471a1.593 1.593 0 0 1 2.263 0v.001zm7.523 9.691-2.007-2.006a.676.676 0 0 0-.972 0l-4.091 4.091a.686.686 0 0 0-.204.491.694.694 0 0 0 .204.491l1.999 1.999.697-.697-1.789-1.789 3.669-3.68 1.793 1.799.701-.701zm-5.801 5.797-2.005-2.005a.676.676 0 0 0-.972 0l-4.103 4.103a.676.676 0 0 0 0 .971l2.002 2.002.704-.704-1.794-1.787 3.68-3.669 1.787 1.786.699-.698zM7.797 7.078l4.091 4.091a.667.667 0 0 0 .971-.011l4.091-4.091a.654.654 0 0 0 .206-.48h.011a.703.703 0 0 0-.206-.491L12.87 2.005a.688.688 0 0 0-.982 0L7.797 6.108a.676.676 0 0 0 0 .971zm-5.794 5.795 4.091 4.091a.676.676 0 0 0 .971 0l4.091-4.091a.665.665 0 0 0 .205-.491h.011a.683.683 0 0 0-.206-.491L7.075 7.8a.676.676 0 0 0-.972 0L2 11.903a.676.676 0 0 0 0 .971zm7.923 10.004 2.699 2.701 11.013-14.903-.749-.749L9.926 22.877z"/>
      <path fill="#fd9222" style="fill:var(--color2, #fd9222)" d="m13.511.473 8.602 8.613.091-.091a.982.982 0 0 1 1.354-.015l.998.998c.349.349.36.88.095 1.25l-.005.008-.163.219 7.04 7.04a1.593 1.593 0 0 1 0 2.263L20.746 31.535a1.593 1.593 0 0 1-2.263 0l-5.082-5.082a.952.952 0 0 1-.7.362.964.964 0 0 1-.736-.282l-2.971-2.971a.98.98 0 0 1-.015-1.354l.007-.008.088-.087-8.602-8.602a1.593 1.593 0 0 1 0-2.263L11.249.471a1.593 1.593 0 0 1 2.263 0v.001zm7.523 9.691-2.007-2.006a.676.676 0 0 0-.972 0l-4.091 4.091a.686.686 0 0 0-.204.491.694.694 0 0 0 .204.491l1.999 1.999.697-.697-1.789-1.789 3.669-3.68 1.793 1.799.701-.701zm-5.801 5.797-2.005-2.005a.676.676 0 0 0-.972 0l-4.103 4.103a.676.676 0 0 0 0 .971l2.002 2.002.704-.704-1.794-1.787 3.68-3.669 1.787 1.786.699-.698zM7.797 7.078l4.091 4.091a.667.667 0 0 0 .971-.011l4.091-4.091a.654.654 0 0 0 .206-.48h.011a.703.703 0 0 0-.206-.491L12.87 2.005a.688.688 0 0 0-.982 0L7.797 6.108a.676.676 0 0 0 0 .971zm-5.794 5.795 4.091 4.091a.676.676 0 0 0 .971 0l4.091-4.091a.665.665 0 0 0 .205-.491h.011a.683.683 0 0 0-.206-.491L7.075 7.8a.676.676 0 0 0-.972 0L2 11.903a.676.676 0 0 0 0 .971zm7.923 10.004 2.699 2.701 11.013-14.903-.749-.749L9.926 22.877z"/>
    </symbol>
    <symbol id="icon-cuiller-03" viewBox="0 0 32 32">
      <path fill="#fd9222" style="fill:var(--color2, #fd9222)" d="M15.373 13.835a5.895 5.895 0 0 1-1.345-3.751c0-4.941 5.921-9.877 11.842-9.877a5.923 5.923 0 0 1 5.921 5.922c0 5.922-4.934 11.845-9.881 11.845a5.887 5.887 0 0 1-3.75-1.345L3.579 31.213a1.977 1.977 0 0 1-2.794-2.795l14.587-14.584z"/>
    </symbol>
    <symbol id="icon-dollar-02" viewBox="0 0 32 32">
      <path fill="#fd9222" style="fill:var(--color2, #fd9222)" d="M16 .762C7.619.762.762 7.619.762 16S7.619 31.238 16 31.238 31.238 24.381 31.238 16 24.381.762 16 .762zm0 27.428C9.295 28.19 3.81 22.704 3.81 16S9.296 3.809 16 3.809c6.705 0 12.191 5.486 12.191 12.191S22.705 28.19 16 28.19z"/>
      <path fill="#fd9222" style="fill:var(--color2, #fd9222)" d="M17.981 14.476h-3.962c-.762 0-1.371-.61-1.371-1.371s.61-1.371 1.371-1.371h5.638c.914 0 1.524-.61 1.524-1.524s-.61-1.524-1.524-1.524h-2.133V7.315c0-.914-.61-1.524-1.524-1.524s-1.524.61-1.524 1.524v1.371h-.457c-2.438 0-4.419 1.981-4.419 4.419s1.981 4.419 4.419 4.419h3.809c.762 0 1.371.61 1.371 1.371s-.61 1.371-1.371 1.371H12.19c-.914 0-1.524.61-1.524 1.524s.61 1.524 1.524 1.524h2.286v1.371c0 .914.61 1.524 1.524 1.524s1.524-.61 1.524-1.524v-1.371h.457c2.438 0 4.419-1.981 4.419-4.419s-1.981-4.419-4.419-4.419z"/>
    </symbol>
    <symbol id="icon-flche_blanche" viewBox="0 0 32 32">
      <path fill="none" stroke="#fafafa" style="stroke:var(--color3, #fafafa)" stroke-linejoin="round" stroke-linecap="round" stroke-width="1.333" d="M9.143 16h13.714m0 0-3.429-3.429M22.857 16l-3.429 3.429M16 30.857c8.205 0 14.857-6.652 14.857-14.857S24.205 1.143 16 1.143C7.795 1.143 1.143 7.795 1.143 16S7.795 30.857 16 30.857z"/>
    </symbol>
  </defs>
</svg>
